<?xml version="1.0" encoding="UTF-8" standalone="no"?>
<!-- Created with Inkscape (http://www.inkscape.org/) -->

<svg
   xmlns:dc="http://purl.org/dc/elements/1.1/"
   xmlns:cc="http://creativecommons.org/ns#"
   xmlns:rdf="http://www.w3.org/1999/02/22-rdf-syntax-ns#"
   xmlns:svg="http://www.w3.org/2000/svg"
   xmlns="http://www.w3.org/2000/svg"
   xmlns:sodipodi="http://sodipodi.sourceforge.net/DTD/sodipodi-0.dtd"
   xmlns:inkscape="http://www.inkscape.org/namespaces/inkscape"
   width="48pt"
   height="48pt"
   viewBox="0 0 16.933334 16.933333"
   version="1.1"
   id="svg979"
   inkscape:version="0.92.4 (5da689c313, 2019-01-14)"
   sodipodi:docname="6 - Hair Dryer.svg"
   inkscape:export-filename="E:\TR Design Studio Creative\Project Design\TR Creative Design\Icon Design\Project Hiring\Icon Icons\Project - 001\002 - Beauty And Fashion\Send\Line\6 - Hair Dryer.png"
   inkscape:export-xdpi="768"
   inkscape:export-ydpi="768">
  <defs
     id="defs973" />
  <sodipodi:namedview
     id="base"
     pagecolor="#ffffff"
     bordercolor="#666666"
     borderopacity="1.0"
     inkscape:pageopacity="0.0"
     inkscape:pageshadow="2"
     inkscape:zoom="8.546875"
     inkscape:cx="32"
     inkscape:cy="32"
     inkscape:document-units="pt"
     inkscape:current-layer="layer1"
     showgrid="false"
     units="pt"
     inkscape:window-width="1366"
     inkscape:window-height="716"
     inkscape:window-x="-8"
     inkscape:window-y="-8"
     inkscape:window-maximized="1"
     inkscape:snap-bbox="true"
     inkscape:bbox-nodes="true"
     inkscape:snap-nodes="false"
     showguides="false">
    <inkscape:grid
       type="xygrid"
       id="grid1526" />
    <sodipodi:guide
       position="0.97013909,15.963209"
       orientation="56.666615,0"
       id="guide1528"
       inkscape:locked="false" />
    <sodipodi:guide
       position="0.97013909,0.97016731"
       orientation="0,56.666667"
       id="guide1530"
       inkscape:locked="false" />
    <sodipodi:guide
       position="15.963195,0.97016731"
       orientation="-56.666615,0"
       id="guide1532"
       inkscape:locked="false" />
    <sodipodi:guide
       position="15.963195,15.963209"
       orientation="0,-56.666667"
       id="guide1534"
       inkscape:locked="false" />
  </sodipodi:namedview>
  <metadata
     id="metadata976">
    <rdf:RDF>
      <cc:Work
         rdf:about="">
        <dc:format>image/svg+xml</dc:format>
        <dc:type
           rdf:resource="http://purl.org/dc/dcmitype/StillImage" />
        <dc:title></dc:title>
      </cc:Work>
    </rdf:RDF>
  </metadata>
  <g
     inkscape:label="Layer 1"
     inkscape:groupmode="layer"
     id="layer1"
     transform="translate(0,-280.06668)">
    <path
       style="color:#000000;font-style:normal;font-variant:normal;font-weight:normal;font-stretch:normal;font-size:medium;line-height:normal;font-family:sans-serif;font-variant-ligatures:normal;font-variant-position:normal;font-variant-caps:normal;font-variant-numeric:normal;font-variant-alternates:normal;font-feature-settings:normal;text-indent:0;text-align:start;text-decoration:none;text-decoration-line:none;text-decoration-style:solid;text-decoration-color:#000000;letter-spacing:normal;word-spacing:normal;text-transform:none;writing-mode:lr-tb;direction:ltr;text-orientation:mixed;dominant-baseline:auto;baseline-shift:baseline;text-anchor:start;white-space:normal;shape-padding:0;clip-rule:nonzero;display:inline;overflow:visible;visibility:visible;opacity:1;isolation:auto;mix-blend-mode:normal;color-interpolation:sRGB;color-interpolation-filters:linearRGB;solid-color:#000000;solid-opacity:1;vector-effect:none;fill:#000000;fill-opacity:1;fill-rule:nonzero;stroke:none;stroke-width:0.529167;stroke-linecap:round;stroke-linejoin:round;stroke-miterlimit:4;stroke-dasharray:none;stroke-dashoffset:0;stroke-opacity:1;paint-order:markers fill stroke;color-rendering:auto;image-rendering:auto;shape-rendering:auto;text-rendering:auto;enable-background:accumulate"
       d="m 11.913581,281.0471 c -1.305778,0 -2.1612857,0.38081 -2.9234867,0.76079 -0.7622009,0.37997 -1.4296083,0.75089 -2.5071205,0.84675 -0.143825,0.0128 -0.6514352,0.016 -1.0899411,0.0123 -0.4226999,-0.004 -0.7734793,-0.0111 -0.800267,-0.0111 a 0.32645871,0.32645871 0 0 0 -0.00326,-6.4e-4 l -3.2609114,-0.32469 a 0.32599649,0.32599649 0 0 0 -0.03374,-0.002 0.32599649,0.32599649 0 0 0 -0.32469247,0.32724 v 4.88945 A 0.32599649,0.32599649 0 0 0 1.3286,287.86729 l 3.244359,-0.32342 c 0.050228,0.002 1.5825766,0.0719 1.9462314,0.0993 0.4115293,0.031 0.7848587,0.10201 1.1364171,0.19735 0.061943,0.0313 1.428637,0.7381 1.428637,2.29767 v 3.273 c 1.564e-4,0.0177 0.00131,0.0354 0.00446,0.0529 0,0 0.056681,0.33478 0.3151417,0.64493 0.2365584,0.28386 0.6620358,0.55308 1.2943038,0.59717 -0.01304,0.17197 -0.0358,0.32118 -0.08849,0.40619 -0.0832,0.13417 -0.233964,0.25465 -0.7818036,0.25465 H 8.7570107 c -0.2379339,0 -0.3585797,-0.0736 -0.4666626,-0.22601 -0.10808,-0.15237 -0.1859004,-0.412 -0.1859004,-0.75761 V 292.434 c 0,0 0.00511,-0.31315 -0.1559801,-0.63538 -0.1611077,-0.32221 -0.5502725,-0.66847 -1.1478748,-0.66847 -0.5975989,0 -0.984218,0.34626 -1.1453288,0.66847 -0.1611109,0.32223 -0.1566158,0.63538 -0.1566158,0.63538 v 1.30194 c 0,0.43472 0.6525631,0.43472 0.6525631,0 V 292.434 c 0,0 0.00326,-0.17707 0.086585,-0.34379 0.083369,-0.16673 0.1825071,-0.30815 0.5627959,-0.30815 0.3802921,0 0.4819797,0.14142 0.565345,0.30815 0.083369,0.16672 0.086583,0.34379 0.086583,0.34379 v 1.94941 c 0,0.43621 0.087704,0.82798 0.305591,1.13514 0.2178839,0.30717 0.5849092,0.50105 0.9988995,0.50105 h 1.0708429 c 0.6646794,0 1.1176584,-0.20869 1.3375984,-0.56344 0.160006,-0.25809 0.191947,-0.53296 0.197997,-0.78944 0.465186,-0.096 0.790094,-0.32241 0.986168,-0.5577 0.25846,-0.31015 0.315141,-0.64493 0.315141,-0.64493 0.002,-0.01 0.0033,-0.0207 0.0044,-0.0312 l 0.308137,-4.42979 c 1.7179,-0.46885 2.985831,-2.03876 2.985879,-3.90329 -5.5e-5,-2.23305 -1.816657,-4.0522 -4.049718,-4.05227 z m -0.187175,0.65893 v 1.13641 c -1.102011,0.16013 -1.9538717,1.11187 -1.9538717,2.25692 0,1.14507 0.8518607,2.09526 1.9538717,2.25501 v 1.13196 c -0.802757,-0.0517 -1.486531,-0.33718 -2.247366,-0.66275 -0.821282,-0.35142 -1.7284813,-0.74093 -2.9120294,-0.83018 -0.3573346,-0.027 -1.324283,-0.0692 -1.6839318,-0.0853 v -3.59769 c 0.1560551,0.004 0.2369071,0.005 0.5029522,0.009 0.4431835,0.004 0.9139045,0.007 1.1548796,-0.014 1.2042339,-0.10718 1.9943829,-0.54023 2.7407681,-0.91231 0.7050105,-0.35148 1.3758083,-0.65349 2.4447273,-0.68631 z m 0.651929,0.0287 c 1.659194,0.22645 2.932992,1.64202 2.933037,3.36468 -4.5e-5,1.72278 -1.273716,3.13678 -2.933037,3.36278 v -1.10713 c 1.102963,-0.15891 1.956417,-1.1099 1.956417,-2.25565 0,-1.14572 -0.853454,-2.09828 -1.956417,-2.25754 z m -10.7561677,1.2784 2.6083484,0.26229 v 3.64608 l -2.6083484,0.26166 v -0.61817 h 0.6525663 c 0.434728,0 0.434728,-0.65194 0,-0.65194 H 1.6221673 V 285.4241 H 2.926661 c 0.4347183,0 0.4347183,-0.65192 0,-0.65192 H 1.6221673 v -0.48831 h 0.6525663 c 0.4347182,0 0.4347182,-0.65193 0,-0.65193 H 1.6221673 Z m 10.4314777,0.45519 c 0.903982,0 1.628545,0.72711 1.628545,1.63109 0,0.90399 -0.724563,1.62918 -1.628545,1.62918 -0.903986,0 -1.631729,-0.72519 -1.631729,-1.62918 0,-0.90398 0.727743,-1.63109 1.631729,-1.63109 z m -0.0076,0.48576 a 0.32599649,0.32599649 0 0 0 -0.223464,0.0987 l -0.651928,0.65194 a 0.32668037,0.32668037 0 0 0 0.461572,0.4622 l 0.652563,-0.65193 a 0.32599649,0.32599649 0 0 0 -0.238743,-0.56089 z m 0.656385,0.97662 a 0.32599649,0.32599649 0 0 0 -0.0038,6.6e-4 0.32599649,0.32599649 0 0 0 -0.2241,0.0987 l -0.651929,0.65193 a 0.32668037,0.32668037 0 0 0 0.462207,0.46157 l 0.651928,-0.65194 a 0.32599649,0.32599649 0 0 0 -0.234287,-0.56088 z m -3.4958479,3.48502 c 0.00567,0.002 0.011507,0.005 0.017178,0.007 0.8212359,0.3514 1.6514779,0.7102 2.6853829,0.72642 0.0016,1e-5 0.0029,1e-5 0.0045,0 0.135914,0 0.270486,-0.007 0.403,-0.0203 l -0.296681,4.23625 c -9.77e-4,0.006 -0.02526,0.14949 -0.171257,0.32469 -0.148995,0.17879 -0.401725,0.37309 -0.972161,0.37309 -0.570437,0 -0.822534,-0.1943 -0.9715247,-0.37309 -0.1447149,-0.17366 -0.1672716,-0.31359 -0.1687123,-0.32214 v -0.28394 h 0.976616 c 0.180082,6.9e-4 0.327238,-0.14524 0.327874,-0.32532 v -1.95579 c -6.35e-4,-0.18058 -0.147775,-0.32652 -0.327857,-0.32583 H 9.7362448 v -0.3387 c 0,-0.71072 -0.2326273,-1.28073 -0.5296909,-1.72276 z m 0.529691,2.71403 H 10.3882 v 1.30385 H 9.7362325 Z"
       id="path964"
       inkscape:connector-curvature="0" />
  </g>
</svg>
