<?xml version="1.0" encoding="iso-8859-1"?>
<!-- Generator: Adobe Illustrator 16.0.0, SVG Export Plug-In . SVG Version: 6.00 Build 0)  -->
<!DOCTYPE svg PUBLIC "-//W3C//DTD SVG 1.1//EN" "http://www.w3.org/Graphics/SVG/1.1/DTD/svg11.dtd">
<svg version="1.1" id="Capa_1" xmlns="http://www.w3.org/2000/svg" xmlns:xlink="http://www.w3.org/1999/xlink" x="0px" y="0px"
	 width="612px" height="612px" viewBox="0 0 612 612" style="enable-background:new 0 0 612 612;" xml:space="preserve">
<g>
	<g>
		<g>
			<path d="M207.174,213.052c9.603,0,18.847,1.933,27.294,5.439c8.746,3.626,16.635,8.925,23.15,15.46
				c12.89,12.89,20.879,30.74,20.879,50.424c0,9.603-1.933,18.827-5.439,27.273l-0.199,0.459
				c-3.646,8.586-8.846,16.315-15.241,22.711c-6.515,6.496-14.404,11.795-23.17,15.44l0,0c-8.447,3.507-17.671,5.438-27.274,5.438
				s-18.827-1.932-27.274-5.438l-0.458-0.198c-8.587-3.627-16.317-8.865-22.692-15.242c-12.89-12.908-20.899-30.74-20.899-50.443
				c0-9.603,1.933-18.827,5.439-27.274l0.199-0.458c3.646-8.606,8.885-16.316,15.261-22.691c6.495-6.495,14.364-11.814,23.15-15.44
				v-0.02C188.348,214.984,197.592,213.052,207.174,213.052L207.174,213.052z M227.157,236.102
				c-6.096-2.51-12.85-3.905-19.982-3.905c-7.132,0-13.866,1.395-19.962,3.925v-0.02h-0.02c-6.295,2.61-12.073,6.535-16.914,11.376
				c-4.722,4.722-8.567,10.34-11.177,16.456l-0.199,0.498c-2.51,6.076-3.905,12.83-3.905,19.942
				c0,14.404,5.857,27.473,15.301,36.916c4.741,4.742,10.32,8.568,16.456,11.178l0.498,0.199c6.096,2.51,12.83,3.924,19.962,3.924
				c7.132,0,13.866-1.395,19.962-3.924v0.021l0.04-0.021c6.295-2.608,12.073-6.496,16.914-11.354
				c4.722-4.742,8.567-10.341,11.177-16.458l0.199-0.498c2.53-6.097,3.925-12.83,3.925-19.962c0-14.404-5.857-27.473-15.281-36.897
				C239.25,242.637,233.492,238.732,227.157,236.102z"/>
			<path d="M216.757,370.838c0,5.279-4.283,9.563-9.563,9.563c-5.28,0-9.563-4.283-9.563-9.563v-24.705
				c0-5.278,4.284-9.562,9.563-9.562c5.279,0,9.563,4.283,9.563,9.562V370.838z"/>
			<path d="M478.918,274.811c5.279,0,9.563,4.283,9.563,9.563c0,5.279-4.283,9.563-9.563,9.563H355.397
				c-5.279,0-9.563-4.283-9.563-9.563c0-5.28,4.283-9.563,9.563-9.563H478.918z"/>
			<path d="M478.918,213.052c5.279,0,9.563,4.283,9.563,9.563c0,5.279-4.283,9.563-9.563,9.563H355.397
				c-5.279,0-9.563-4.283-9.563-9.563c0-5.28,4.283-9.563,9.563-9.563H478.918z"/>
			<path d="M478.918,336.571c5.279,0,9.563,4.283,9.563,9.562c0,5.28-4.283,9.563-9.563,9.563H355.397
				c-5.279,0-9.563-4.283-9.563-9.563c0-5.279,4.283-9.562,9.563-9.562H478.918z"/>
			<g>
				<path d="M207.174,250.108c9.463,0,18.05,3.845,24.246,10.041l0.638,0.697c5.817,6.136,9.403,14.444,9.403,23.529
					c0,9.423-3.845,17.99-10.061,24.207l0.02,0.021c-6.196,6.194-14.763,10.041-24.246,10.041c-9.463,0-18.05-3.847-24.246-10.041
					c-6.196-6.196-10.021-14.764-10.021-24.227c0-9.423,3.845-17.99,10.021-24.186l0.04-0.04
					C189.184,253.952,197.771,250.108,207.174,250.108L207.174,250.108z M217.893,273.696c-2.729-2.749-6.535-4.442-10.718-4.442
					c-4.183,0-7.969,1.693-10.718,4.383l-0.02,0.04c-2.689,2.729-4.383,6.515-4.383,10.698c0,4.183,1.713,7.969,4.423,10.698
					c2.729,2.729,6.535,4.443,10.718,4.443c4.183,0,7.969-1.713,10.698-4.443l0.02,0.02l0.02-0.02
					c2.709-2.689,4.383-6.495,4.383-10.698c0-4.004-1.514-7.63-4.004-10.28L217.893,273.696L217.893,273.696z M232.058,260.866
					l-0.638,12.83C234.926,270.189,235.146,264.611,232.058,260.866z"/>
			</g>
			<path d="M83.675,515.674c5.279,0,9.563,4.283,9.563,9.563s-4.283,9.562-9.563,9.562H58.971c-5.279,0-9.563-4.282-9.563-9.562
				s4.284-9.563,9.563-9.563H83.675z"/>
			<path d="M553.029,515.674c5.278,0,9.562,4.283,9.562,9.563s-4.283,9.562-9.562,9.562h-24.704c-5.279,0-9.563-4.282-9.563-9.562
				s4.283-9.563,9.563-9.563H553.029z"/>
			<path d="M58.971,77.2H553.03c16.236,0,30.979,6.634,41.657,17.313C605.366,105.191,612,119.953,612,136.171v296.447
				c0,16.217-6.654,30.979-17.333,41.639c-10.678,10.658-25.421,17.313-41.638,17.313H58.971c-16.217,0-30.979-6.635-41.658-17.313
				C6.634,463.596,0,448.834,0,432.618V136.171c0-16.177,6.634-30.92,17.313-41.618l0.02-0.02l0.02-0.02l0.02-0.02
				C28.071,83.814,42.813,77.2,58.971,77.2L58.971,77.2z M553.029,96.325H58.971c-10.958,0-20.958,4.482-28.131,11.675l-0.04,0.04
				c-7.172,7.172-11.675,17.173-11.675,28.131v296.447c0,10.938,4.502,20.898,11.714,28.131
				c7.212,7.211,17.193,11.715,28.131,11.715h494.059c10.918,0,20.897-4.504,28.109-11.715c7.212-7.213,11.715-17.193,11.715-28.111
				V136.171c0-10.917-4.503-20.899-11.715-28.131C573.948,100.828,563.967,96.325,553.029,96.325z"/>
			<path d="M562.612,383.19c0,5.278-4.283,9.562-9.563,9.562c-5.279,0-9.562-4.283-9.562-9.562V145.733H68.534v277.322H553.03
				c5.278,0,9.562,4.282,9.562,9.562s-4.283,9.562-9.562,9.562H59.21h-0.239c-5.279,0-9.563-4.282-9.563-9.562V136.409v-0.239
				c0-5.28,4.284-9.562,9.563-9.562H552.79h0.259c5.28,0,9.563,4.283,9.563,9.562V383.19L562.612,383.19z"/>
			<path d="M216.757,222.615c0,5.279-4.283,9.563-9.563,9.563c-5.28,0-9.563-4.283-9.563-9.563V197.93
				c0-5.28,4.284-9.563,9.563-9.563c5.279,0,9.563,4.283,9.563,9.563V222.615z"/>
			<path d="M293.658,274.811c5.279,0,9.563,4.283,9.563,9.563c0,5.279-4.283,9.563-9.563,9.563h-24.704
				c-5.279,0-9.563-4.283-9.563-9.563c0-5.28,4.284-9.563,9.563-9.563H293.658z"/>
			<path d="M145.415,274.811c5.279,0,9.563,4.283,9.563,9.563c0,5.279-4.284,9.563-9.563,9.563H120.73
				c-5.279,0-9.563-4.283-9.563-9.563c0-5.28,4.284-9.563,9.563-9.563H145.415z"/>
			<path d="M275.09,338.762c3.726,3.728,3.726,9.804,0,13.527c-3.726,3.728-9.802,3.728-13.527,0l-17.452-17.451
				c-3.726-3.727-3.726-9.803,0-13.526c3.725-3.728,9.802-3.728,13.527,0L275.09,338.762z"/>
			<path d="M170.278,233.95c3.726,3.726,3.726,9.802,0,13.527s-9.802,3.726-13.527,0l-17.472-17.472
				c-3.726-3.726-3.726-9.802,0-13.527c3.726-3.725,9.802-3.726,13.527,0L170.278,233.95z"/>
			<path d="M152.766,352.29c-3.726,3.705-9.782,3.687-13.488-0.039c-3.706-3.727-3.686-9.783,0.04-13.488l17.472-17.473
				c3.726-3.705,9.782-3.686,13.488,0.041c3.706,3.726,3.686,9.781-0.04,13.486L152.766,352.29z"/>
			<path d="M257.618,247.478c-3.726,3.726-9.802,3.726-13.527,0c-3.725-3.726-3.726-9.802,0-13.527l17.472-17.472
				c3.725-3.726,9.802-3.726,13.527,0c3.725,3.726,3.726,9.802,0,13.527L257.618,247.478z"/>
		</g>
	</g>
</g>
<g>
</g>
<g>
</g>
<g>
</g>
<g>
</g>
<g>
</g>
<g>
</g>
<g>
</g>
<g>
</g>
<g>
</g>
<g>
</g>
<g>
</g>
<g>
</g>
<g>
</g>
<g>
</g>
<g>
</g>
</svg>
